<?xml version="1.0" encoding="iso-8859-1"?>
<!-- Generator: Adobe Illustrator 19.0.0, SVG Export Plug-In . SVG Version: 6.00 Build 0)  -->
<svg version="1.1" id="Capa_1" xmlns="http://www.w3.org/2000/svg" xmlns:xlink="http://www.w3.org/1999/xlink" x="0px" y="0px"
	 viewBox="0 0 496.008 496.008" style="enable-background:new 0 0 496.008 496.008;" xml:space="preserve">
<!--<g>-->
	<!--&lt;!&ndash;<rect x="104.004" y="432" style="fill:#333333;" width="288" height="32"/>&ndash;&gt;-->
	<!--&lt;!&ndash;<rect x="104.004" y="192" style="fill:#333333;" width="288" height="32"/>&ndash;&gt;-->
<!--</g>-->
<g>
	<path style="fill:#333333;" d="M408.004,232v-48c0-13.232-10.768-24-24-24h-56v-24c0-13.232-10.768-24-24-24h-32V64h72
		c17.648,0,32-14.352,32-32s-14.352-32-32-32h-192c-17.648,0-32,14.352-32,32s14.352,32,32,32h72v48h-32c-13.232,0-24,10.768-24,24
		v24h-56c-13.232,0-24,10.768-24,24v48c0,10.416,6.712,19.216,16,22.528V401.48c-9.288,3.312-16,12.112-16,22.528v48
		c0,13.232,10.768,24,24,24h272c13.232,0,24-10.768,24-24v-48c0-10.416-6.712-19.216-16-22.528V254.52
		C401.292,251.208,408.004,242.408,408.004,232z M352.004,400V256h24v144H352.004z M144.004,256v144h-24V256H144.004z M160.004,256
		h40v19.752l-17.936,4.488l3.872,15.52l14.064-3.52v15.504l-17.936,4.488l3.872,15.52l14.064-3.512v15.504l-17.936,4.488
		l3.872,15.52l14.064-3.512v15.504l-17.936,4.488l3.872,15.52l14.064-3.512V400h-40V256z M249.94,343.76l30.064-7.52v15.504l-64,16
		V352.24l17.936-4.488l-3.872-15.52l-14.064,3.52V320.24l64-16v15.504l-33.936,8.488L249.94,343.76z M216.004,303.752V288.24l64-16
		v15.504L216.004,303.752z M216.004,271.752V256h63.016L216.004,271.752z M216.004,384.24l64-16V400h-64V384.24z M296.004,364.24
		l17.936-4.488l-3.872-15.52l-14.064,3.52V332.24l17.936-4.488l-3.872-15.52l-14.064,3.52V300.24l17.936-4.488l-3.872-15.52
		l-14.064,3.52V268.24l17.936-4.488L312.004,256h24v144h-40V364.24z M136.004,32c0-8.824,7.176-16,16-16h192c8.824,0,16,7.176,16,16
		s-7.176,16-16,16h-192C143.18,48,136.004,40.824,136.004,32z M240.004,64h16v48h-16V64z M104.004,184c0-4.408,3.584-8,8-8h168v-16
		h-96v-24c0-4.408,3.584-8,8-8h112c4.416,0,8,3.592,8,8v24h-16v16h88c4.416,0,8,3.592,8,8v48c0,4.408-3.584,8-8,8h-272
		c-4.416,0-8-3.592-8-8V184z M392.004,472c0,4.408-3.584,8-8,8h-272c-4.416,0-8-3.592-8-8v-48c0-4.408,3.584-8,8-8h272
		c4.416,0,8,3.592,8,8V472z"/>
	<rect x="280.004" y="200" style="fill:#333333;" width="16" height="16"/>
	<rect x="200.004" y="200" style="fill:#333333;" width="16" height="16"/>
	<rect x="280.004" y="440" style="fill:#333333;" width="16" height="16"/>
	<rect x="200.004" y="440" style="fill:#333333;" width="16" height="16"/>
</g>
<g>
</g>
<g>
</g>
<g>
</g>
<g>
</g>
<g>
</g>
<g>
</g>
<g>
</g>
<g>
</g>
<g>
</g>
<g>
</g>
<g>
</g>
<g>
</g>
<g>
</g>
<g>
</g>
<g>
</g>
</svg>
